M48
INCH,TZ
T1C0.040
%
G90
G05
T1
X45500Y-35000
X45500Y-36000
X45500Y-37000
X45500Y-38000
X45500Y-39000
X45500Y-40000
X45500Y-41000
X45500Y-42000
X45500Y-43000
X45500Y-44000
X45500Y-45000
X45500Y-46000
X45500Y-47000
X45500Y-48000
X51500Y-39000
X51500Y-40000
X51500Y-41000
X51500Y-42000
X51500Y-43000
X51500Y-44000
X51500Y-45000
X51500Y-46000
X60500Y-39000
X60500Y-40000
X60500Y-41000
X60500Y-42000
X60500Y-43000
X60500Y-44000
X60500Y-45000
X60500Y-46000
T0
M30
