G04 #@! TF.FileFunction,Copper,L2,Bot,Signal*
%FSLAX46Y46*%
G04 Gerber Fmt 4.6, Leading zero omitted, Abs format (unit mm)*
G04 Created by KiCad (PCBNEW 4.0.5) date 2017 January 02, Monday 13:47:43*
%MOMM*%
%LPD*%
G01*
G04 APERTURE LIST*
%ADD10C,0.100000*%
%ADD11R,2.032000X1.727200*%
%ADD12O,2.032000X1.727200*%
%ADD13C,1.800000*%
%ADD14C,0.762000*%
G04 APERTURE END LIST*
D10*
D11*
X115570000Y-88900000D03*
D12*
X115570000Y-91440000D03*
X115570000Y-93980000D03*
X115570000Y-96520000D03*
X115570000Y-99060000D03*
X115570000Y-101600000D03*
X115570000Y-104140000D03*
X115570000Y-106680000D03*
X115570000Y-109220000D03*
X115570000Y-111760000D03*
X115570000Y-114300000D03*
X115570000Y-116840000D03*
X115570000Y-119380000D03*
X115570000Y-121920000D03*
D13*
X153670000Y-99060000D03*
X153670000Y-101600000D03*
X153670000Y-104140000D03*
X153670000Y-106680000D03*
X153670000Y-109220000D03*
X153670000Y-111760000D03*
X153670000Y-114300000D03*
X153670000Y-116840000D03*
X130810000Y-116840000D03*
X130810000Y-114300000D03*
X130810000Y-111760000D03*
X130810000Y-109220000D03*
X130810000Y-106680000D03*
X130810000Y-104140000D03*
X130810000Y-101600000D03*
X130810000Y-99060000D03*
D14*
X115570000Y-116840000D02*
X118110000Y-116840000D01*
X154940000Y-104140000D02*
X153670000Y-104140000D01*
X156210000Y-105410000D02*
X154940000Y-104140000D01*
X156210000Y-118110000D02*
X156210000Y-105410000D01*
X153670000Y-120650000D02*
X156210000Y-118110000D01*
X121920000Y-120650000D02*
X153670000Y-120650000D01*
X118110000Y-116840000D02*
X121920000Y-120650000D01*
X153670000Y-111760000D02*
X151130000Y-111760000D01*
X128270000Y-88900000D02*
X115570000Y-88900000D01*
X151130000Y-111760000D02*
X128270000Y-88900000D01*
X115570000Y-104140000D02*
X119380000Y-104140000D01*
X129540000Y-114300000D02*
X130810000Y-114300000D01*
X119380000Y-104140000D02*
X129540000Y-114300000D01*
X115570000Y-101600000D02*
X120650000Y-101600000D01*
X120650000Y-101600000D02*
X128270000Y-109220000D01*
X128270000Y-109220000D02*
X130810000Y-109220000D01*
X115570000Y-91440000D02*
X120650000Y-91440000D01*
X120650000Y-91440000D02*
X120650000Y-101600000D01*
X115570000Y-114300000D02*
X119380000Y-114300000D01*
X133350000Y-99060000D02*
X130810000Y-99060000D01*
X134620000Y-100330000D02*
X133350000Y-99060000D01*
X134620000Y-116840000D02*
X134620000Y-100330000D01*
X132080000Y-119380000D02*
X134620000Y-116840000D01*
X130810000Y-119380000D02*
X132080000Y-119380000D01*
X124460000Y-119380000D02*
X130810000Y-119380000D01*
X119380000Y-114300000D02*
X124460000Y-119380000D01*
M02*
